# xmcd
#
# Track frame offsets:
#	150
#	5440
#	38282
#	52285
#	73952
#	104592
#	129825
#	150972
#	170090
#	192362
#	216202
#	249150
#	272322
#	292725
#	317625
#
# Disc length: 4442 seconds
#
# Revision: 0
# Processed by: cddbd v1.4PL0 Copyright (c) Steve Scherf et al.
# Submitted via: EasyCDDAExtractor 4.6.9.1
#
DISCID=c911580f
DTITLE=Alanis Morissette - Going North
DYEAR=1995
DGENRE=pop
TTITLE0=Intro
TTITLE1=All I Really Want
TTITLE2=Right Through You
TTITLE3=Hand In My Pocket
TTITLE4=Not The Doctor
TTITLE5=Mary Jane
TTITLE6=You Learn
TTITLE7=Ironic
TTITLE8=Forgiven
TTITLE9=You Oughta Know
TTITLE10=Wake Up
TTITLE11=All I Really Want
TTITLE12=Hand In My Pocket
TTITLE13=You Oughta Know
TTITLE14=Perfect
EXTD=
EXTT0=
EXTT1=
EXTT2=
EXTT3=
EXTT4=
EXTT5=
EXTT6=
EXTT7=
EXTT8=
EXTT9=
EXTT10=
EXTT11=
EXTT12=
EXTT13=
EXTT14=
PLAYORDER=
